<svg version="1.1" id="Layer_1" xmlns="http://www.w3.org/2000/svg" xmlns:xlink="http://www.w3.org/1999/xlink" x="0px" y="0px"
	 width="100%" viewBox="0 0 1024 1024" enable-background="new 0 0 1024 1024" xml:space="preserve">
<path fill="#000000" opacity="1.000000" stroke="none" 
	d="
M697.389771,240.880112 
	C698.701660,296.347534 697.882812,351.344360 698.486816,406.329315 
	C698.677002,423.640869 698.950928,440.971375 699.502319,458.278992 
	C699.708923,464.764496 697.954651,469.775604 693.984863,474.689423 
	C686.292603,484.210968 686.442627,484.352905 695.352661,492.632660 
	C704.261658,500.911438 713.122864,509.244110 722.160095,517.380920 
	C725.145203,520.068542 724.937317,521.775208 722.090149,524.553955 
	C700.984009,545.152649 680.165833,566.046692 659.031555,586.616089 
	C612.822815,631.589722 566.482544,676.428284 520.186890,721.312561 
	C517.676270,723.746704 514.965210,725.983521 512.558167,728.512756 
	C509.947052,731.256470 507.940186,731.286926 505.100861,728.500854 
	C489.523315,713.216125 473.773773,698.106506 458.064545,682.956177 
	C411.650818,638.193909 365.216583,593.452881 318.820404,548.672485 
	C310.908234,541.035828 303.132416,533.257507 295.316193,525.521851 
	C290.906525,521.157654 290.929565,521.138977 295.602386,516.655090 
	C305.581085,507.079987 315.474640,497.413574 325.590210,487.985382 
	C328.256165,485.500610 328.641815,483.518982 326.102020,480.964111 
	C317.301270,472.111084 315.364777,461.496765 315.445435,449.160431 
	C315.933594,374.499237 315.689392,299.833252 315.723511,225.168900 
	C315.724487,223.074005 315.171875,220.852493 316.513214,218.839737 
	C318.912933,218.439133 319.640625,220.451416 320.671570,221.784149 
	C332.603882,237.210083 343.530823,253.358032 354.691254,269.337555 
	C377.775421,302.389374 400.837830,335.456390 423.902924,368.521515 
	C425.320892,370.554260 426.580475,372.718994 428.930450,374.129120 
	C433.463104,371.959259 437.225952,368.672974 441.226837,365.730286 
	C462.164581,350.330688 483.003723,334.797791 503.143066,318.362579 
	C506.567352,315.568054 509.028412,315.828735 512.295288,318.361572 
	C531.252502,333.059296 550.164307,347.820892 569.679077,361.782501 
	C574.420654,365.174774 579.307800,368.374054 583.925903,371.924927 
	C587.017700,374.302307 588.599548,373.423615 590.602051,370.439301 
	C607.497192,345.260742 624.474365,320.136414 641.557739,295.085052 
	C658.077576,270.859924 674.742554,246.733658 691.381104,222.589630 
	C692.558411,220.881256 693.390625,218.672577 696.817566,218.209152 
	C697.863770,225.628494 697.081909,233.048264 697.389771,240.880112 
M650.807312,518.342224 
	C657.825745,508.825806 664.616089,499.128265 671.965332,489.874634 
	C675.300537,485.675140 674.773865,483.288696 671.031860,479.713165 
	C643.218750,453.137787 615.600647,426.357941 587.988403,399.573181 
	C585.324280,396.988922 583.560974,396.814728 581.312317,400.060974 
	C572.873230,412.244232 564.245789,424.296967 555.736877,436.432129 
	C555.089722,437.355103 554.570496,438.504761 554.409180,439.609955 
	C552.994751,449.297882 551.683228,459.000763 550.326050,468.697113 
	C547.473938,489.074371 544.631470,509.453033 541.750183,529.826172 
	C538.613037,552.008667 535.458069,574.188721 532.270203,596.363953 
	C529.436829,616.073730 526.556030,635.776733 523.680786,655.480408 
	C521.107727,673.112793 518.513611,690.742188 516.010742,707.813782 
	C559.248840,644.058594 605.427734,581.923096 650.807312,518.342224 
M403.373199,423.886444 
	C383.310577,443.158813 363.311005,462.497711 343.117798,481.632263 
	C340.060333,484.529449 339.809814,486.321167 342.383301,489.807159 
	C375.528076,534.705383 408.557587,579.689087 441.480530,624.750427 
	C461.933624,652.744385 483.290344,680.093567 501.840729,708.678284 
	C498.443756,688.330139 494.868988,667.385620 491.465729,646.413269 
	C487.159424,619.876099 482.874390,593.334473 478.794708,566.761780 
	C473.302399,530.988220 467.262543,495.273438 462.957214,459.353699 
	C460.809448,441.434601 454.674683,426.197296 443.347595,412.529724 
	C439.258606,407.595825 435.949677,402.015442 431.963959,396.267395 
	C422.295135,405.629181 413.103210,414.529266 403.373199,423.886444 
M571.038452,398.570343 
	C571.702271,397.611237 572.360718,396.648407 573.030701,395.693665 
	C577.296814,389.614044 577.349487,389.560608 572.045471,384.478699 
	C552.314026,365.573425 532.172119,347.111542 512.004822,328.673431 
	C508.428741,325.403992 506.584381,326.035370 503.490265,328.998993 
	C489.416779,342.479218 475.117096,355.723175 460.911469,369.065613 
	C453.431854,376.090759 445.978119,383.143494 438.241577,390.439423 
	C462.077057,423.349609 485.250793,456.187531 507.991302,491.077026 
	C527.847717,458.529144 549.275452,428.869659 571.038452,398.570343 
M371.054352,308.389557 
	C355.917877,286.232666 340.781433,264.075775 325.644989,241.918884 
	C325.354431,242.117783 325.063873,242.316666 324.773315,242.515549 
	C324.773315,312.571655 324.773315,382.627747 324.773315,452.993408 
	C328.709351,451.303375 331.504242,448.927185 334.390442,446.698517 
	C361.790894,425.540558 389.138611,404.313690 416.643860,383.292877 
	C419.888519,380.813171 420.351898,379.182281 417.960663,375.783905 
	C402.348785,353.596588 386.936676,331.268677 371.054352,308.389557 
M665.038208,433.436462 
	C673.250916,439.768341 681.463684,446.100220 690.922913,453.393158 
	C690.275513,382.165009 689.261841,312.584656 689.750549,242.724258 
	C686.867737,243.339264 686.438904,244.928787 685.647095,246.139587 
	C679.907349,254.917191 674.330444,263.804657 668.444336,272.482605 
	C645.172241,306.793182 622.565125,341.556396 598.568237,375.371674 
	C596.030457,378.947876 596.511169,380.791748 599.915894,383.377960 
	C621.528870,399.794495 642.977295,416.427826 665.038208,433.436462 
M539.751221,458.228271 
	C530.424194,472.226562 521.112366,486.235046 511.760620,500.216858 
	C508.991821,504.356415 507.819519,504.396851 504.856720,500.317810 
	C501.431091,495.601471 498.126099,490.795807 494.838318,485.981354 
	C486.446289,473.692566 478.092926,461.377350 469.724121,449.072662 
	C482.314667,533.026184 493.838440,616.894958 509.365021,700.110596 
	C521.068604,617.613464 532.772217,535.116333 544.475769,452.619202 
	C544.245544,452.546631 544.015259,452.474060 543.785034,452.401489 
	C542.581238,454.153809 541.377441,455.906128 539.751221,458.228271 
M670.205627,506.643921 
	C623.678955,570.887695 577.152344,635.131470 530.625671,699.375183 
	C535.033508,696.419128 538.900818,693.043396 542.550049,689.446350 
	C571.736267,660.677124 600.873291,631.858154 630.041077,603.070129 
	C656.600098,576.856873 683.143311,550.627075 709.804871,524.518311 
	C712.407959,521.969238 712.903564,520.352417 710.019287,517.749817 
	C704.828857,513.066223 699.905579,508.086517 694.873962,503.227081 
	C690.725586,499.220703 686.582031,495.209351 681.954346,490.734039 
	C677.887512,496.234924 674.255005,501.148407 670.205627,506.643921 
M413.769928,600.711670 
	C387.076599,564.439392 360.383240,528.167114 333.412933,491.518494 
	C323.585907,501.000275 314.140656,510.106293 304.705597,519.222839 
	C302.589447,521.267639 303.994324,522.654846 305.554321,524.171936 
	C313.194305,531.602112 320.744263,539.124817 328.388977,546.550049 
	C372.937469,589.820068 417.495575,633.080261 462.070984,676.322510 
	C470.226471,684.234070 478.476624,692.048157 486.683044,699.907227 
	C486.793732,699.779480 486.904419,699.651733 487.015106,699.523987 
	C462.743042,666.775818 438.471008,634.027710 413.769928,600.711670 
M690.802490,463.935791 
	C689.483276,462.684601 688.258789,461.311523 686.829529,460.202057 
	C677.626831,453.058411 668.344727,446.016907 659.153564,438.858490 
	C637.615234,422.083618 616.119507,405.253937 594.583252,388.476440 
	C593.109985,387.328735 591.595337,385.368683 589.601440,387.960175 
	C588.105347,389.904572 588.940369,391.171753 590.453796,392.621643 
	C616.057678,417.152283 641.554504,441.795410 667.270630,466.207550 
	C671.545532,470.265656 675.307434,475.021759 680.905334,478.326294 
	C684.330505,473.601654 687.622253,469.061127 690.802490,463.935791 
M401.474518,415.974243 
	C409.364777,408.320923 417.227356,400.638702 425.162872,393.032593 
	C427.421448,390.867828 428.561005,388.907501 425.161224,386.634003 
	C424.567749,386.929626 423.919250,387.131317 423.415985,387.520660 
	C393.658051,410.543732 363.911346,433.581299 334.165497,456.619995 
	C323.495422,464.884247 323.623871,464.789520 331.936798,475.531433 
	C334.492584,478.833954 336.167450,478.689667 338.973663,475.980530 
	C359.582367,456.084625 380.297516,436.299042 401.474518,415.974243 
M445.243103,370.746246 
	C441.890594,373.451538 438.506622,376.119293 435.203888,378.884064 
	C434.154633,379.762421 432.082092,380.645233 433.351929,382.332794 
	C434.916138,384.411530 436.400909,382.329041 437.436737,381.360748 
	C444.907562,374.377167 452.269409,367.276978 459.665771,360.213776 
	C459.543640,360.063629 459.421509,359.913452 459.299377,359.763306 
	C454.801422,363.277557 450.303467,366.791809 445.243103,370.746246 
M569.729858,372.765808 
	C573.838196,375.782349 576.696777,380.563751 582.252563,381.597504 
	C576.267273,374.534363 568.542969,369.627991 561.374878,364.041168 
	C563.278381,367.527679 566.622253,369.530579 569.729858,372.765808 
z"/>
<path fill="#000000" opacity="1.000000" stroke="none" 
	d="
M617.934814,470.891052 
	C620.445007,469.208557 622.601562,467.634949 624.881531,466.266846 
	C628.641357,464.010742 630.357422,464.656372 631.026123,469.056549 
	C632.296082,477.413177 633.187927,485.826721 634.284424,494.210419 
	C634.816589,498.279175 633.018738,500.306671 629.069946,501.175201 
	C609.293762,505.524597 589.633423,510.411469 569.678101,513.921753 
	C567.131348,514.369751 564.435425,515.164429 561.225159,511.821533 
	C579.700806,497.503357 598.941895,484.660522 617.934814,470.891052 
M619.566833,478.155609 
	C607.398132,487.380035 594.116394,495.066864 581.812500,505.144714 
	C586.621643,505.052368 590.470642,503.517090 594.433960,502.621124 
	C603.832886,500.496277 613.194031,498.203430 622.562500,495.945740 
	C624.510010,495.476440 626.825928,495.045929 626.507751,492.342957 
	C625.859802,486.837830 624.954346,481.363037 624.085815,475.400665 
	C622.387146,476.418945 621.265015,477.091583 619.566833,478.155609 
z"/>
<path fill="#000000" opacity="1.000000" stroke="none" 
	d="
M396.118408,470.842224 
	C413.686981,483.264648 430.960358,495.485168 448.232300,507.707794 
	C448.639954,507.996246 449.064484,508.272980 449.423737,508.615417 
	C450.703125,509.834961 452.844696,510.869293 451.803711,513.018066 
	C450.805634,515.078247 448.533478,514.397400 446.852753,514.072693 
	C437.391052,512.244568 427.930023,510.392242 418.525787,508.292816 
	C407.328918,505.793091 396.212799,502.930756 385.012177,500.449097 
	C381.377625,499.643799 380.544098,497.713379 380.970856,494.355621 
	C381.974976,486.454681 382.824463,478.533386 383.659576,470.612183 
	C383.870575,468.610870 383.674500,466.386414 385.697693,465.284943 
	C387.894379,464.089081 389.422089,465.935913 391.012787,467.056885 
	C392.646637,468.208221 394.222046,469.442566 396.118408,470.842224 
M396.643005,496.681946 
	C408.472046,500.056885 420.487915,502.606934 433.959686,505.383423 
	C419.055023,495.082703 405.351196,485.611877 390.820374,475.569550 
	C389.926361,481.955109 389.194855,486.995300 388.527405,492.043976 
	C388.283722,493.887299 389.532043,494.795837 391.028656,495.294342 
	C392.600861,495.818085 394.240631,496.138947 396.643005,496.681946 
z"/>
</svg>